<svg xmlns="http://www.w3.org/2000/svg" viewBox="0 0 24 24">
  <g fill="currentcolor" class="nc-icon-wrapper">
    <path fill="currentcolor" d="M11,11H0V0h11V11z M2,9h7V2H2V9z"></path>
    <path fill="currentcolor" d="M24,11H13V0h11V11z M15,9h7V2h-7V9z"></path>
    <path fill="currentcolor" d="M11,24H0V13h11V24z M2,22h7v-7H2V22z"></path>
    <polygon
      fill="currentcolor"
      points="24,20 22,20 22,15 20,15 20,18 14,18 14,13 16,13 16,16 18,16 18,13 24,13 "
    ></polygon>
    <polygon fill="currentcolor" points="24,24 14,24 14,20 16,20 16,22 24,22 "></polygon>
    <rect data-color="color-2" x="4" y="4" fill="currentcolor" width="3" height="3"></rect>
    <rect data-color="color-2" x="17" y="4" fill="currentcolor" width="3" height="3"></rect>
    <rect data-color="color-2" x="4" y="17" fill="currentcolor" width="3" height="3"></rect>
  </g>
</svg>
