<svg xmlns="http://www.w3.org/2000/svg" height="24" width="24" viewBox="0 0 24 24">
  <g fill="currentcolor" class="nc-icon-wrapper">
    <path
      d="M12,6.1h0A3.049,3.049,0,0,1,8.951,3.051v0h0A3.049,3.049,0,0,1,12,0h0a3.049,3.049,0,0,1,3.049,3.049h0A3.049,3.049,0,0,1,12,6.1Z"
      fill="currentcolor"
    ></path>
    <path d="M7,12V9A2,2,0,0,1,9,7h6a2,2,0,0,1,2,2v3Z" fill="currentcolor"></path>
    <path
      data-color="color-2"
      d="M4,15H4a1,1,0,0,0,1,1H6v7a1,1,0,0,0,1,1H17a1,1,0,0,0,1-1V16h1a1,1,0,0,0,1-1h0a1,1,0,0,0-1-1H5A1,1,0,0,0,4,15Z"
      fill="currentcolor"
    ></path>
  </g>
</svg>
