<svg viewBox="0 0 625 625" fill="none" xmlns="http://www.w3.org/2000/svg">
  <circle cx="312.5" cy="312.5" r="312.5" fill="#F7F9F4" />
  <g clip-path="url(#clip0_693_5)">
    <path
      fill-rule="evenodd"
      clip-rule="evenodd"
      d="M340.64 64.5421C376.27 68.9227 407.75 80.681 437.845 100.739C451.106 109.616 475.09 131.864 487.543 146.851C508.415 171.981 524.097 204.605 530.9 236.882C536.435 263.512 536.319 300.977 530.784 328.413C527.787 342.592 519.83 366.109 513.142 380.057C500.228 407.147 475.436 437.697 450.414 457.409C404.866 493.26 352.747 509.976 299.358 505.595C275.028 503.635 264.304 501.676 247.239 496.142C228.443 489.917 212.069 482.193 194.888 471.242C169.289 454.988 154.991 442.307 137.234 420.289C114.633 392.277 101.142 363.342 92.6086 324.955C80.9624 272.042 92.4933 208.178 121.551 164.257C137.234 140.741 165.369 112.959 189.353 97.6268C214.722 81.2574 247.585 69.1532 278.602 64.6574C293.362 62.4671 323.343 62.4671 340.64 64.5421ZM66.0874 273.08C72.8907 276.653 73.0059 284.722 66.318 288.181C60.0913 291.409 54.5565 289.564 51.3278 283.224C49.7135 280.227 50.9819 277.345 55.3636 273.887C58.9382 271.005 61.7057 270.889 66.0874 273.08ZM568.26 275.039C572.066 279.535 572.066 283.339 568.144 287.028C564.109 290.717 559.727 290.717 555.23 286.913C550.618 283.109 550.618 279.305 554.999 274.809C559.612 270.197 564.339 270.313 568.26 275.039ZM552.809 320.689C554.423 322.88 556.499 327.03 557.421 329.797L559.15 334.868L564.916 327.491C573.449 316.539 576.101 315.387 577.6 322.188C578.868 327.837 574.948 336.943 568.26 343.745C563.417 348.932 561.803 349.855 558.228 349.855C553.846 349.855 550.848 346.972 546.467 338.442C543.469 332.563 542.777 321.842 545.198 318.268C547.505 314.695 549.118 315.156 552.809 320.689ZM79.0021 318.845C81.4236 323.341 79.5786 333.139 74.7356 342.707C70.6998 350.431 69.7773 351.584 67.3558 351.238C59.8607 350.431 48.791 338.327 47.292 329.22C46.4848 323.687 47.4073 318.73 49.3676 318.73C50.9819 318.73 59.1688 327.145 61.9363 331.641C63.0894 333.485 64.3577 334.868 64.819 334.868C65.2802 334.868 66.318 332.563 67.1252 329.797C68.6242 324.955 74.6203 316.424 76.5806 316.424C77.1571 316.424 78.1949 317.577 79.0021 318.845ZM87.7656 357.578C90.4177 364.034 89.3799 373.372 84.9981 381.556C80.3858 390.547 79.2327 391.124 72.5447 388.472C62.8587 384.899 53.5187 373.832 53.5187 366.224C53.5187 361.728 60.4372 363.572 69.2007 370.143C74.1591 373.947 75.0815 373.602 76.004 367.953C76.9265 362.997 82.692 353.313 84.7675 353.313C85.4594 353.313 86.7278 355.272 87.7656 357.578ZM541.624 356.426C545.313 360.345 548.197 367.031 548.197 371.757C548.197 375.792 549.349 376.138 552.348 372.795C554.884 369.913 567.684 363.457 569.182 364.38C572.642 366.57 565.723 380.288 558.458 385.476C552.694 389.741 547.62 390.893 544.045 388.934C539.778 386.743 534.129 374.293 533.898 366.916C533.783 361.152 535.973 353.313 537.703 353.313C538.165 353.313 539.894 354.697 541.624 356.426ZM104.37 401.268C105.869 408.07 104.716 418.214 101.718 424.439C100.219 427.437 99.7578 427.667 93.0699 427.552C87.3044 427.437 84.8829 426.86 81.1929 424.324C75.3122 420.405 69.662 412.681 69.662 408.416C69.662 405.649 70.1232 405.188 72.8907 405.188C74.6203 405.188 79.348 407.032 83.4992 409.222C87.5349 411.413 91.3402 413.257 91.8014 413.257C92.2626 413.257 92.7239 410.145 92.7239 406.226C92.7239 399.309 93.7617 396.081 97.221 392.162C98.9506 390.087 99.0659 390.087 101.026 392.507C102.064 393.776 103.563 397.695 104.37 401.268ZM527.671 392.162C530.669 395.966 532.053 400.577 532.053 407.724C532.053 408.129 532.051 408.513 532.049 408.877C532.037 411.591 532.03 413.175 532.789 413.751C533.853 414.559 536.426 413.382 542.607 410.552C543.206 410.278 543.838 409.988 544.506 409.684C550.618 406.917 553.155 406.226 554.077 407.147C557.191 410.26 550.733 420.52 543.123 424.901C540.47 426.399 535.858 427.552 531.592 427.897L524.443 428.474L521.675 422.364C517.755 413.718 517.755 401.96 521.675 395.043C524.788 389.626 525.249 389.395 527.671 392.162ZM509.683 431.126C510.029 433.892 509.914 439.08 509.337 442.653C509.274 443.015 509.213 443.357 509.155 443.682C508.682 446.336 508.422 447.797 509.025 448.418C509.762 449.177 511.79 448.685 516.294 447.59C516.721 447.487 517.168 447.378 517.639 447.264C525.826 445.305 531.592 445.074 532.63 446.688C533.552 448.187 530.438 453.374 526.979 456.256C522.828 459.83 519.139 460.867 508.299 461.559L497.691 462.251L496.768 455.334C494.693 438.734 496.076 430.895 502.534 423.863L504.956 421.212L506.915 423.632C507.953 424.901 509.222 428.359 509.683 431.126ZM122.474 425.592C127.317 432.624 128.585 442.768 126.048 453.143C124.434 459.599 120.859 462.135 113.595 462.02C106.215 461.905 98.2588 457.87 94.4535 452.452C89.034 444.613 92.1474 442.768 105.062 446.112C105.376 446.193 105.681 446.272 105.977 446.348C110.912 447.625 113.301 448.244 114.37 447.325C115.373 446.465 115.215 444.254 114.91 439.969C114.895 439.754 114.879 439.535 114.863 439.31C114.287 430.203 116.016 422.48 118.669 422.48C119.591 422.48 121.205 423.863 122.474 425.592ZM149.571 459.253C154.414 464.556 155.683 469.628 154.414 478.735C153.953 482.424 153.492 486.343 153.492 487.727C153.607 489.687 152.455 490.263 147.035 491.416C137.58 493.376 134.696 493.145 128.009 489.802C120.398 485.997 118.092 483.807 118.092 480.58C118.092 478.389 118.899 477.928 123.627 477.352C126.625 477.006 132.16 477.122 135.965 477.697C139.77 478.274 142.999 478.62 143.114 478.505C143.229 478.389 142.653 475.507 141.731 472.049C140.001 465.593 139.424 454.527 140.693 453.259C141.846 452.106 145.074 454.297 149.571 459.253ZM483.623 460.176C483.623 464.556 482.816 470.435 482.008 473.432L480.395 478.735L489.389 478.159C505.301 477.006 510.144 479.427 504.379 485.652C498.152 492.338 486.967 494.528 477.05 491.07C474.398 490.147 471.515 489.687 470.709 489.917C469.555 490.378 469.094 487.957 468.863 479.657C468.517 466.862 470.247 461.213 476.243 455.91C482.47 450.492 483.623 451.184 483.623 460.176ZM177.937 482.539C183.818 486.689 186.125 491.762 187.393 502.597C187.854 506.978 188.431 511.705 188.661 512.972C188.892 514.817 188.431 515.163 185.779 514.932C184.049 514.817 180.013 515.393 176.67 516.431C165.946 519.543 155.568 518.276 149.802 512.857C147.035 510.322 146.804 509.63 148.187 508.247C150.263 506.287 160.295 504.327 168.943 504.327C172.748 504.327 175.747 503.866 175.747 503.289C175.747 502.713 174.709 499.947 173.44 497.18C172.172 494.297 170.904 489.11 170.443 485.537C169.52 477.582 170.673 477.237 177.937 482.539ZM454.764 485.729C454.587 486.867 454.403 488.053 454.219 489.11C453.873 491.877 452.604 496.142 451.337 498.678C450.068 501.099 449.03 503.52 449.03 503.981C449.03 504.442 453.412 505.018 458.831 505.134C469.555 505.364 476.704 507.093 476.704 509.514C476.704 512.281 469.901 516.777 463.79 518.16C458.37 519.428 456.871 519.313 450.76 517.007C446.955 515.624 442.457 514.241 440.843 513.895C438.075 513.318 437.96 513.088 438.306 506.287C439.113 491.185 439.69 489.572 444.879 484.038C448.338 480.464 450.76 478.966 452.835 478.966C455.488 478.966 455.949 479.427 455.488 481.502C455.279 482.403 455.03 484.011 454.764 485.729ZM428.851 502.137C428.851 506.172 428.389 511.705 427.928 514.241L427.006 519.082L431.849 521.157C445.917 527.267 449.837 530.495 446.955 533.377C445.917 534.414 441.997 534.876 435.308 534.876C425.507 534.876 424.93 534.76 418.703 530.495L412.131 526.23V518.16C412.131 509.86 413.976 503.405 417.666 499.255C419.857 496.834 425.968 493.837 427.698 494.413C428.389 494.528 428.851 498.102 428.851 502.137ZM207.226 498.793C211.723 502.022 214.952 509.053 215.759 517.584C216.451 524.962 216.451 525.077 212.3 528.881C207.687 533.262 197.771 536.605 189.238 536.605C185.202 536.605 183.126 535.913 180.705 533.722L177.476 530.841L180.359 528.305C183.357 525.768 198.924 518.16 201.23 518.16C202.037 518.16 202.268 517.238 201.806 515.509C198.117 502.943 197.425 498.563 198.693 496.949C200.308 495.105 202.383 495.566 207.226 498.793ZM401.292 514.817C400.485 518.391 398.64 523.117 397.372 525.307C394.604 529.688 394.258 530.956 395.872 530.495C397.256 530.149 415.36 543.522 416.052 545.366C416.974 547.902 412.823 549.285 404.982 549.285C396.218 549.285 387.109 545.366 383.189 539.832C380.305 535.797 379.96 525.768 382.612 520.697C386.302 513.78 399.216 505.018 401.984 507.555C402.445 508.016 402.099 511.359 401.292 514.817ZM232.94 509.976C237.783 512.972 241.934 518.506 244.932 526.114C248.392 534.876 247.7 537.297 240.666 543.06C233.978 548.593 228.674 550.438 220.026 550.438C212.646 550.438 209.533 548.363 211.377 544.905C213.222 541.331 221.986 535.682 228.097 534.068C230.98 533.262 233.402 532.224 233.402 531.763C233.402 531.187 231.902 527.728 229.942 523.924C228.097 520.235 226.252 515.047 225.791 512.512C225.099 508.362 225.33 507.785 227.175 507.785C228.443 507.785 230.98 508.822 232.94 509.976ZM268.801 521.157C274.221 524.27 277.335 528.074 280.678 536.028C284.022 543.867 283.676 545.597 277.219 551.706C273.068 555.856 269.839 557.816 264.881 559.199C257.155 561.389 250.352 560.467 249.775 557.009C249.199 554.127 257.155 546.749 263.843 543.982C266.726 542.83 269.147 541.331 269.147 540.755C269.147 540.293 266.841 537.297 264.073 534.184C259.23 528.881 254.733 519.197 256.233 517.584C257.386 516.431 263.613 518.16 268.801 521.157ZM371.311 518.622C372.119 520.927 365.776 530.38 359.781 535.567L355.053 539.832L358.974 541.907C364.97 545.251 373.849 552.513 375.347 555.28C376.5 557.355 376.27 558.047 374.541 559.314C371.542 561.505 363.125 561.159 357.936 558.507C352.631 555.741 341.792 544.905 341.792 542.253C341.792 539.026 344.329 532.685 347.212 528.766C353.208 520.697 369.467 513.895 371.311 518.622ZM318.846 530.034C326.802 535.337 327.263 546.98 319.768 553.205C315.156 557.124 309.275 557.239 304.201 553.32C295.899 546.98 296.937 534.414 306.047 529.688C311.466 526.806 314.118 526.806 318.846 530.034ZM161.795 140.741C197.655 103.506 247.469 81.1421 300.281 78.4907C322.535 77.4532 354.131 81.1421 373.503 87.1365C407.173 97.3962 436.116 115.38 461.714 141.893C501.38 182.932 519.369 226.853 519.369 282.072C519.369 302.937 517.409 319.076 513.027 335.33C499.305 387.205 460.907 436.659 413.284 463.98C385.033 480.118 359.896 487.957 329.454 490.032L318.73 490.839V430.78V370.72L333.375 355.388C341.446 346.972 360.587 327.376 375.924 311.813C391.145 296.251 404.751 282.072 406.135 280.342L408.441 277.114L405.558 272.618L402.561 268.122L398.986 271.005C397.026 272.503 378.115 291.063 357.128 312.159L318.73 350.431V309.162V268.007L323.227 263.972C325.649 261.667 329.916 257.056 332.567 253.597C337.641 247.027 337.987 244.606 334.297 239.88C332.798 237.805 332.337 238.035 325.649 243.799L318.73 249.793L318.5 225.701C318.5 215.168 318.426 205.674 318.396 201.902C318.389 200.968 318.384 200.384 318.384 200.224C318.5 199.187 316.77 198.841 311.927 199.072L305.47 199.417L304.893 224.087L304.317 248.872L300.281 244.491C293.823 237.574 292.901 237.459 289.326 242.762L286.329 247.488L289.557 252.214C291.287 254.866 295.553 259.822 298.897 263.166L304.893 269.391L304.663 309.853L304.317 350.431L262.921 309.047C224.062 270.082 221.409 267.777 220.487 270.428C219.911 271.927 218.296 274.117 216.912 275.155L214.491 276.999L217.604 281.495C219.334 283.916 232.825 298.095 247.585 312.966C262.344 327.837 276.989 342.938 280.217 346.397C283.561 349.855 290.364 356.772 295.553 361.843L304.893 370.835V430.664C304.893 477.813 304.547 490.493 303.509 490.493C289.211 490.147 263.152 485.537 248.623 480.58C218.181 470.435 177.937 444.728 160.526 424.439C131.468 390.663 117.169 364.034 108.867 328.528C102.986 303.397 102.641 263.166 108.175 238.842C116.708 201.492 134.12 169.56 161.795 140.741ZM340.409 157.456C341.331 141.548 337.064 128.636 326.226 114.688C323.458 111.23 319.192 106.388 316.77 104.082L312.273 99.7018L304.663 106.964C289.788 121.143 284.714 132.556 284.714 151.692C284.714 163.22 284.945 164.142 288.634 171.52C292.901 179.82 299.935 187.313 303.625 187.313C305.816 187.313 305.931 186.045 306.277 160.453C306.623 131.634 307.084 129.674 312.503 129.674C318.5 129.674 318.73 131.057 318.73 161.491C318.73 183.278 319.076 189.618 320.23 189.618C322.074 189.503 329.685 183.739 332.452 180.281C337.641 173.595 339.832 167.255 340.409 157.456ZM258.655 129.443C257.847 127.599 256.002 125.524 254.503 124.948C252.768 124.332 252.011 123.961 251.361 124.098C250.673 124.244 250.106 124.96 248.623 126.561C245.624 129.674 245.393 132.786 247.931 136.36C250.467 139.934 255.656 139.703 258.193 135.899C259.807 133.363 259.922 132.441 258.655 129.443ZM377.308 136.245C380.536 132.786 380.536 130.25 376.962 126.792C373.272 122.988 369.121 123.103 366.122 126.907C364.739 128.636 363.701 130.481 363.701 131.057C363.701 132.671 366.122 137.052 367.622 137.974C370.158 139.703 374.886 138.781 377.308 136.245ZM284.368 198.841C279.525 186.391 266.149 174.632 250.928 169.33C245.163 167.37 239.052 166.332 230.173 165.756C223.102 165.373 219.575 164.963 217.819 166.533C215.883 168.266 216.105 172.41 216.105 181.664C216.105 209.331 230.749 232.732 252.082 239.418C259.922 241.724 270.877 242.07 274.451 239.995C276.758 238.727 275.835 237.343 255.195 215.556C243.203 202.876 233.402 191.693 233.402 190.656C233.402 188.581 238.475 183.393 240.089 183.97C240.781 184.201 250.698 194.46 262.344 206.68C275.259 220.282 284.137 228.813 285.175 228.582C288.173 228.006 287.597 207.026 284.368 198.841ZM404.059 204.605C406.712 196.766 408.557 174.287 407.058 168.407C406.366 165.641 405.904 165.41 400.254 165.526C378.807 165.987 361.049 172.672 348.596 185.007C340.063 193.422 336.949 201.262 336.258 216.363C335.451 233.655 335.681 233.539 361.51 207.141C373.387 194.922 383.881 185.007 384.802 185.007C386.763 185.007 390.222 188.697 390.222 190.772C390.222 192.155 369.582 214.634 353.439 230.888C345.483 238.842 345.483 239.534 353.093 241.032C373.503 244.952 396.103 228.813 404.059 204.605ZM204.344 221.205C197.425 213.827 191.774 210.253 181.973 206.91C177.476 205.297 170.558 204.259 161.103 203.682L146.92 202.876V215.672C146.92 235.499 151.878 249.332 163.524 261.897C171.135 270.197 181.743 275.962 190.968 276.884C197.54 277.576 205.727 275.731 205.727 273.541C205.727 272.964 196.733 263.051 185.894 251.638C174.94 240.226 165.484 230.197 165.023 229.159C163.87 227.314 168.136 221.897 170.558 221.897C171.365 221.897 178.399 228.467 186.355 236.537C205.266 255.903 214.722 264.549 216.912 264.549C218.527 264.549 218.642 263.051 218.181 253.713C217.489 240.226 213.453 230.772 204.344 221.205ZM438.652 275.385C462.636 268.238 477.742 242.301 477.857 208.293V203.452L468.402 203.567C463.098 203.682 456.41 204.143 453.412 204.605C432.426 208.178 414.091 220.513 409.248 234.462C406.827 241.032 405.674 258.324 407.288 262.243C408.557 265.01 409.133 264.434 429.889 243.453C441.651 231.58 451.683 221.897 452.259 221.897C453.527 221.897 458.255 226.968 458.255 228.352C458.139 228.928 448.799 239.188 437.499 251.292C426.084 263.281 416.744 273.541 416.744 274.002C416.744 275.155 424.584 277.23 428.966 277.23C430.927 277.23 435.193 276.422 438.652 275.385ZM149.917 284.953C149.571 282.878 147.957 280.112 146.228 278.613C141.154 274.232 134.581 275.616 131.237 281.956C129.046 286.222 129.854 288.988 134.35 292.792C139.078 296.597 142.884 296.481 147.15 292.216C150.033 289.218 150.494 288.066 149.917 284.953ZM476.013 291.87C485.122 299.709 497.345 287.489 488.812 278.959C485.007 275.039 479.241 275.039 475.552 278.959C471.746 282.993 471.976 288.297 476.013 291.87ZM241.127 318.384C242.05 316.77 227.059 303.052 221.178 300.17C217.143 298.21 213.222 297.403 207.457 297.172C198.001 296.827 191.429 298.556 181.512 303.859C174.132 307.778 156.029 323.687 156.26 326.107C156.49 328.643 176.439 345.935 182.665 348.932C198.117 356.195 215.068 357.347 229.366 352.16C234.785 350.085 238.014 347.78 244.702 341.209C249.199 336.482 253.004 332.332 253.004 331.756C253.004 331.295 237.668 331.064 218.988 331.295L184.972 331.641V326.453C184.972 323.572 185.318 320.92 185.894 320.689C186.356 320.343 198.809 319.882 213.568 319.652C228.443 319.537 240.781 318.96 241.127 318.384ZM440.959 303.282C437.614 301.438 432.311 299.247 428.966 298.441C412.708 294.06 397.602 299.017 386.302 312.274C383.419 315.617 380.997 318.73 380.997 319.191C380.997 319.537 393.682 319.882 409.017 319.882C434.847 319.882 437.269 320.113 438.998 321.957C440.151 323.11 440.959 324.955 440.959 325.992C440.959 330.142 436.692 330.718 403.829 331.18C376.616 331.641 371.773 331.872 371.773 333.37C371.773 336.252 384.803 348.126 391.491 351.353C412.477 361.267 435.078 356.195 457.447 336.597L467.595 327.837L465.174 324.493C461.253 318.96 447.3 306.741 440.959 303.282ZM287.943 397.464C288.404 395.159 288.519 393.084 288.404 392.853C288.173 392.738 258.885 392.277 223.139 391.816C160.526 391.239 158.219 391.239 158.796 393.314C159.142 394.467 159.834 397.118 160.18 399.309L160.987 403.228L178.399 402.537C187.854 402.076 216.335 401.73 241.473 401.73H287.251L287.943 397.464ZM463.905 400.347C464.482 398.847 465.174 396.312 465.404 394.697L465.75 391.931H401.407C366.007 391.931 336.718 392.162 336.488 392.392C336.257 392.622 336.027 394.928 336.027 397.349V401.73H355.399C366.007 401.73 394.488 402.076 418.703 402.537L462.752 403.228L463.905 400.347ZM436.923 429.166C438.421 426.399 438.767 424.555 438.075 423.863C437.384 423.287 414.322 422.48 386.532 422.134L336.027 421.442V427.206V432.855L378.692 433.085C402.215 433.201 424.354 433.316 427.928 433.431C434.501 433.431 434.616 433.316 436.923 429.166ZM189.007 423.978C189.93 424.439 190.968 424.209 191.314 423.632C191.774 422.941 190.161 422.48 187.623 422.48C185.202 422.48 183.818 422.941 184.51 423.402C185.202 423.863 186.931 426.514 188.546 429.281L191.314 434.353L205.727 433.547C213.684 433.201 235.361 432.855 253.927 432.855H287.597V427.667V422.48H251.274C228.097 422.48 214.952 422.941 214.952 423.632C214.952 424.324 211.377 424.67 206.188 424.555C201.115 424.555 198.117 424.093 199.039 423.517C200.077 422.826 199.731 422.48 197.771 422.48C196.272 422.48 195.35 422.826 195.696 423.287C196.733 424.324 190.622 427.322 188.777 426.63C187.969 426.284 187.277 425.477 187.277 424.67C187.277 423.978 188.085 423.632 189.007 423.978ZM287.597 463.98V457.87V451.876L256.348 451.414L225.099 451.068L225.906 453.72C226.367 455.218 227.636 457.755 228.674 459.368C230.634 462.135 231.441 462.251 245.624 462.942C253.812 463.403 266.611 463.749 274.105 463.864L287.597 463.98ZM394.95 462.135C395.872 461.674 400.6 452.682 400.6 451.645C400.6 451.414 386.071 451.299 368.314 451.299H336.027V457.87V464.326L364.97 463.518C380.882 463.172 394.373 462.481 394.95 462.135Z"
      fill="#1A4C23"
    />
  </g>
  <defs>
    <clipPath id="clip0_693_5">
      <rect width="531" height="498" fill="white" transform="translate(47 63)" />
    </clipPath>
  </defs>
</svg>
