<svg viewBox="0 0 614 576" fill="none" xmlns="http://www.w3.org/2000/svg">
  <path
    fill-rule="evenodd"
    clip-rule="evenodd"
    d="M339.538 1.78367C380.738 6.85034 417.138 20.4503 451.938 43.6503C467.271 53.917 495.004 79.6503 509.404 96.9837C533.538 126.05 551.671 163.784 559.538 201.117C565.938 231.917 565.804 275.25 559.404 306.984C555.938 323.384 546.738 350.584 539.004 366.717C524.071 398.05 495.404 433.384 466.471 456.184C413.804 497.65 353.538 516.984 291.804 511.917C263.671 509.65 251.271 507.384 231.538 500.984C209.804 493.784 190.871 484.85 171.004 472.184C141.404 453.384 124.871 438.717 104.338 413.25C78.2043 380.85 62.6043 347.384 52.7376 302.984C39.271 241.784 52.6043 167.917 86.2043 117.117C104.338 89.917 136.871 57.7837 164.604 40.0503C193.938 21.117 231.938 7.117 267.804 1.917C284.871 -0.616329 319.538 -0.616329 339.538 1.78367ZM22.0709 242.984C29.9376 247.117 30.0709 256.45 22.3376 260.45C15.1376 264.184 8.73762 262.05 5.00428 254.717C3.13762 251.25 4.60428 247.917 9.67095 243.917C13.8043 240.584 17.0043 240.45 22.0709 242.984ZM602.738 245.25C607.138 250.45 607.138 254.85 602.604 259.117C597.938 263.384 592.871 263.384 587.671 258.984C582.338 254.584 582.338 250.184 587.404 244.984C592.738 239.65 598.204 239.784 602.738 245.25ZM584.871 298.05C586.738 300.584 589.138 305.384 590.204 308.584L592.204 314.45L598.871 305.917C608.738 293.25 611.804 291.917 613.538 299.784C615.004 306.317 610.471 316.85 602.738 324.717C597.138 330.717 595.271 331.784 591.138 331.784C586.071 331.784 582.604 328.45 577.538 318.584C574.071 311.784 573.271 299.384 576.071 295.25C578.738 291.117 580.604 291.65 584.871 298.05ZM37.0043 295.917C39.8043 301.117 37.6709 312.45 32.0709 323.517C27.4043 332.45 26.3376 333.784 23.5376 333.384C14.8709 332.45 2.07095 318.45 0.337616 307.917C-0.595718 301.517 0.470949 295.784 2.73762 295.784C4.60428 295.784 14.0709 305.517 17.271 310.717C18.6043 312.85 20.0709 314.45 20.6043 314.45C21.1376 314.45 22.3376 311.784 23.2709 308.584C25.0043 302.984 31.9376 293.117 34.2043 293.117C34.8709 293.117 36.0709 294.45 37.0043 295.917ZM47.1376 340.717C50.2043 348.184 49.0043 358.984 43.9376 368.45C38.6043 378.85 37.271 379.517 29.5376 376.45C18.3376 372.317 7.53762 359.517 7.53762 350.717C7.53762 345.517 15.5376 347.65 25.6709 355.25C31.4043 359.65 32.4709 359.25 33.5376 352.717C34.6043 346.984 41.271 335.784 43.6709 335.784C44.471 335.784 45.9376 338.05 47.1376 340.717ZM571.938 339.384C576.204 343.917 579.538 351.65 579.538 357.117C579.538 361.784 580.871 362.184 584.338 358.317C587.271 354.984 602.071 347.517 603.804 348.584C607.804 351.117 599.804 366.984 591.404 372.984C584.738 377.917 578.871 379.25 574.738 376.984C569.804 374.45 563.271 360.05 563.004 351.517C562.871 344.85 565.404 335.784 567.404 335.784C567.938 335.784 569.938 337.384 571.938 339.384ZM66.3376 391.25C68.071 399.117 66.7376 410.85 63.271 418.05C61.5376 421.517 61.0043 421.784 53.271 421.65C46.6043 421.517 43.8043 420.85 39.5376 417.917C32.7376 413.384 26.2043 404.45 26.2043 399.517C26.2043 396.317 26.7376 395.784 29.9376 395.784C31.9376 395.784 37.4043 397.917 42.2043 400.45C46.8709 402.984 51.271 405.117 51.8043 405.117C52.3376 405.117 52.8709 401.517 52.8709 396.984C52.8709 388.984 54.071 385.25 58.071 380.717C60.071 378.317 60.2043 378.317 62.471 381.117C63.671 382.584 65.4043 387.117 66.3376 391.25ZM555.804 380.717C559.271 385.117 560.871 390.45 560.871 398.717C560.871 399.185 560.869 399.629 560.867 400.05C560.853 403.189 560.845 405.022 561.722 405.688C562.953 406.623 565.928 405.261 573.075 401.988C573.767 401.671 574.498 401.336 575.271 400.984C582.338 397.784 585.271 396.984 586.338 398.05C589.938 401.65 582.471 413.517 573.671 418.584C570.604 420.317 565.271 421.65 560.338 422.05L552.071 422.717L548.871 415.65C544.338 405.65 544.338 392.05 548.871 384.05C552.471 377.784 553.004 377.517 555.804 380.717ZM535.004 425.784C535.404 428.984 535.271 434.984 534.604 439.117C534.531 439.535 534.461 439.931 534.394 440.307C533.847 443.377 533.546 445.066 534.244 445.785C535.096 446.663 537.441 446.093 542.649 444.827C543.142 444.708 543.66 444.582 544.204 444.45C553.671 442.184 560.338 441.917 561.538 443.784C562.604 445.517 559.004 451.517 555.004 454.85C550.204 458.984 545.938 460.184 533.404 460.984L521.138 461.784L520.071 453.784C517.671 434.584 519.271 425.517 526.738 417.384L529.538 414.317L531.804 417.117C533.004 418.584 534.471 422.584 535.004 425.784ZM87.271 419.384C92.871 427.517 94.3376 439.25 91.4043 451.25C89.5376 458.717 85.4043 461.65 77.0043 461.517C68.471 461.384 59.271 456.717 54.8709 450.45C48.6043 441.384 52.2043 439.25 67.1376 443.117C67.5009 443.211 67.8533 443.302 68.1951 443.39C73.9022 444.868 76.6641 445.583 77.9005 444.521C79.0599 443.526 78.8778 440.968 78.525 436.012C78.5074 435.764 78.4893 435.51 78.471 435.25C77.8043 424.717 79.8043 415.784 82.871 415.784C83.9376 415.784 85.8043 417.384 87.271 419.384ZM118.604 458.317C124.204 464.45 125.671 470.317 124.204 480.85C123.671 485.117 123.138 489.65 123.138 491.25C123.271 493.517 121.938 494.184 115.671 495.517C104.738 497.784 101.404 497.517 93.671 493.65C84.871 489.25 82.2043 486.717 82.2043 482.984C82.2043 480.45 83.1376 479.917 88.6043 479.25C92.071 478.85 98.471 478.984 102.871 479.65C107.271 480.317 111.004 480.717 111.138 480.584C111.271 480.45 110.604 477.117 109.538 473.117C107.538 465.65 106.871 452.85 108.338 451.384C109.671 450.05 113.404 452.584 118.604 458.317ZM504.871 459.384C504.871 464.45 503.938 471.25 503.004 474.717L501.138 480.85L511.538 480.184C529.938 478.85 535.538 481.65 528.871 488.85C521.671 496.584 508.738 499.117 497.271 495.117C494.204 494.05 490.871 493.517 489.938 493.784C488.604 494.317 488.071 491.517 487.804 481.917C487.404 467.117 489.404 460.584 496.338 454.45C503.538 448.184 504.871 448.984 504.871 459.384ZM151.404 485.25C158.204 490.05 160.871 495.917 162.338 508.45C162.871 513.517 163.538 518.984 163.804 520.45C164.071 522.584 163.538 522.984 160.471 522.717C158.471 522.584 153.804 523.25 149.938 524.45C137.538 528.05 125.538 526.584 118.871 520.317C115.671 517.384 115.404 516.584 117.004 514.984C119.404 512.717 131.004 510.45 141.004 510.45C145.404 510.45 148.871 509.917 148.871 509.25C148.871 508.584 147.671 505.384 146.204 502.184C144.738 498.85 143.271 492.85 142.738 488.717C141.671 479.517 143.004 479.117 151.404 485.25ZM471.501 488.939L471.501 488.939C471.296 490.256 471.084 491.627 470.871 492.85C470.471 496.05 469.004 500.984 467.538 503.917C466.071 506.717 464.871 509.517 464.871 510.05C464.871 510.584 469.938 511.25 476.204 511.384C488.604 511.65 496.871 513.65 496.871 516.45C496.871 519.65 489.004 524.85 481.938 526.45C475.671 527.917 473.938 527.784 466.871 525.117C462.471 523.517 457.271 521.917 455.404 521.517C452.204 520.85 452.071 520.584 452.471 512.717C453.404 495.25 454.071 493.384 460.071 486.984C464.071 482.85 466.871 481.117 469.271 481.117C472.338 481.117 472.871 481.65 472.338 484.05C472.097 485.092 471.809 486.953 471.501 488.939ZM441.538 507.917C441.538 512.584 441.004 518.984 440.471 521.917L439.404 527.517L445.004 529.917C461.271 536.984 465.804 540.717 462.471 544.05C461.271 545.25 456.738 545.784 449.004 545.784C437.671 545.784 437.004 545.65 429.804 540.717L422.204 535.784V526.45C422.204 516.85 424.338 509.384 428.604 504.584C431.138 501.784 438.204 498.317 440.204 498.984C441.004 499.117 441.538 503.25 441.538 507.917ZM185.271 504.05C190.471 507.784 194.204 515.917 195.138 525.784C195.938 534.317 195.938 534.45 191.138 538.85C185.804 543.917 174.338 547.784 164.471 547.784C159.804 547.784 157.404 546.984 154.604 544.45L150.871 541.117L154.204 538.184C157.671 535.25 175.671 526.45 178.338 526.45C179.271 526.45 179.538 525.384 179.004 523.384C174.738 508.85 173.938 503.784 175.404 501.917C177.271 499.784 179.671 500.317 185.271 504.05ZM409.671 522.584C408.738 526.717 406.604 532.184 405.138 534.717C401.938 539.784 401.538 541.25 403.404 540.717C405.004 540.317 425.938 555.784 426.738 557.917C427.804 560.85 423.004 562.45 413.938 562.45C403.804 562.45 393.271 557.917 388.738 551.517C385.404 546.85 385.004 535.25 388.071 529.384C392.338 521.384 407.271 511.25 410.471 514.184C411.004 514.717 410.604 518.584 409.671 522.584ZM215.004 516.984C220.604 520.45 225.404 526.85 228.871 535.65C232.871 545.784 232.071 548.584 223.938 555.25C216.204 561.65 210.071 563.784 200.071 563.784C191.538 563.784 187.938 561.384 190.071 557.384C192.204 553.25 202.338 546.717 209.404 544.85C212.738 543.917 215.538 542.717 215.538 542.184C215.538 541.517 213.804 537.517 211.538 533.117C209.404 528.85 207.271 522.85 206.738 519.917C205.938 515.117 206.204 514.45 208.338 514.45C209.804 514.45 212.738 515.65 215.004 516.984ZM256.471 529.917C262.738 533.517 266.338 537.917 270.204 547.117C274.071 556.184 273.671 558.184 266.204 565.25C261.404 570.05 257.671 572.317 251.938 573.917C243.004 576.45 235.138 575.384 234.471 571.384C233.804 568.05 243.004 559.517 250.738 556.317C254.071 554.984 256.871 553.25 256.871 552.584C256.871 552.05 254.204 548.584 251.004 544.984C245.404 538.85 240.204 527.65 241.938 525.784C243.271 524.45 250.471 526.45 256.471 529.917ZM375.004 526.984C375.938 529.65 368.604 540.584 361.671 546.584L356.204 551.517L360.738 553.917C367.671 557.784 377.938 566.184 379.671 569.384C381.004 571.784 380.738 572.584 378.738 574.05C375.271 576.584 365.538 576.184 359.538 573.117C353.404 569.917 340.871 557.384 340.871 554.317C340.871 550.584 343.804 543.25 347.138 538.717C354.071 529.384 372.871 521.517 375.004 526.984ZM314.338 540.184C323.538 546.317 324.071 559.784 315.404 566.984C310.071 571.517 303.271 571.65 297.404 567.117C287.804 559.784 289.004 545.25 299.538 539.784C305.804 536.45 308.871 536.45 314.338 540.184ZM132.738 89.9169C174.204 46.8503 231.804 20.9836 292.871 17.9169C318.604 16.7169 355.138 20.9836 377.538 27.9169C416.471 39.7836 449.938 60.5836 479.538 91.2503C525.404 138.717 546.204 189.517 546.204 253.384C546.204 277.517 543.938 296.184 538.871 314.984C523.004 374.984 478.604 432.184 423.538 463.784C390.871 482.45 361.804 491.517 326.604 493.917L314.204 494.85V425.384V355.917L331.138 338.184C340.471 328.45 362.604 305.784 380.338 287.784C397.938 269.784 413.671 253.384 415.271 251.384L417.938 247.65L414.604 242.45L411.138 237.25L407.004 240.584C404.738 242.317 382.871 263.784 358.604 288.184L314.204 332.45V284.717V237.117L319.404 232.45C322.204 229.784 327.138 224.45 330.204 220.45C336.071 212.85 336.471 210.05 332.204 204.584C330.471 202.184 329.938 202.45 322.204 209.117L314.204 216.05L313.938 188.184C313.938 176.002 313.852 165.02 313.818 160.658C313.81 159.577 313.804 158.902 313.804 158.717C313.938 157.517 311.938 157.117 306.338 157.384L298.871 157.784L298.204 186.317L297.538 214.984L292.871 209.917C285.404 201.917 284.338 201.784 280.204 207.917L276.738 213.384L280.471 218.85C282.471 221.917 287.404 227.65 291.271 231.517L298.204 238.717L297.938 285.517L297.538 332.45L249.671 284.584C204.738 239.517 201.671 236.85 200.604 239.917C199.938 241.65 198.071 244.184 196.471 245.384L193.671 247.517L197.271 252.717C199.271 255.517 214.871 271.917 231.938 289.117C249.004 306.317 265.938 323.784 269.671 327.784C273.538 331.784 281.404 339.784 287.404 345.65L298.204 356.05V425.25C298.204 479.784 297.804 494.45 296.604 494.45C280.071 494.05 249.938 488.717 233.138 482.984C197.938 471.25 151.404 441.517 131.271 418.05C97.6709 378.984 81.1376 348.184 71.5376 307.117C64.7376 278.05 64.3376 231.517 70.7376 203.384C80.6043 160.184 100.738 123.25 132.738 89.9169ZM339.271 109.25C340.338 90.8503 335.404 75.9169 322.871 59.7836C319.671 55.7836 314.738 50.1836 311.938 47.5169L306.738 42.4503L297.938 50.8503C280.738 67.2503 274.871 80.4503 274.871 102.584C274.871 115.917 275.138 116.984 279.404 125.517C284.338 135.117 292.471 143.784 296.738 143.784C299.271 143.784 299.404 142.317 299.804 112.717C300.204 79.3836 300.738 77.1169 307.004 77.1169C313.938 77.1169 314.204 78.7169 314.204 113.917C314.204 139.117 314.604 146.45 315.938 146.45C318.071 146.317 326.871 139.65 330.071 135.65C336.071 127.917 338.604 120.584 339.271 109.25ZM244.738 76.8503C243.804 74.7169 241.671 72.3169 239.938 71.6503C237.931 70.9382 237.056 70.509 236.305 70.6678C235.509 70.8361 234.853 71.6647 233.138 73.5169C229.671 77.1169 229.404 80.7169 232.338 84.8503C235.271 88.9836 241.271 88.7169 244.204 84.3169C246.071 81.3836 246.204 80.3169 244.738 76.8503ZM381.938 84.7169C385.671 80.7169 385.671 77.7836 381.538 73.7836C377.271 69.3836 372.471 69.5169 369.004 73.9169C367.404 75.9169 366.204 78.0503 366.204 78.7169C366.204 80.5836 369.004 85.6503 370.738 86.7169C373.671 88.7169 379.138 87.6503 381.938 84.7169ZM274.471 157.117C268.871 142.717 253.404 129.117 235.804 122.984C229.138 120.717 222.071 119.517 211.804 118.85C203.628 118.407 199.55 117.933 197.52 119.749C195.281 121.753 195.538 126.547 195.538 137.25C195.538 169.25 212.471 196.317 237.138 204.05C246.204 206.717 258.871 207.117 263.004 204.717C265.671 203.25 264.604 201.65 240.738 176.45C226.871 161.784 215.538 148.85 215.538 147.65C215.538 145.25 221.404 139.25 223.271 139.917C224.071 140.184 235.538 152.05 249.004 166.184C263.938 181.917 274.204 191.784 275.404 191.517C278.871 190.85 278.204 166.584 274.471 157.117ZM412.871 163.784C415.938 154.717 418.071 128.717 416.338 121.917C415.538 118.717 415.004 118.45 408.471 118.584C383.671 119.117 363.138 126.85 348.738 141.117C338.871 150.85 335.271 159.917 334.471 177.384C333.538 197.384 333.804 197.25 363.671 166.717C377.404 152.584 389.538 141.117 390.604 141.117C392.871 141.117 396.871 145.384 396.871 147.784C396.871 149.384 373.004 175.384 354.338 194.184C345.138 203.384 345.138 204.184 353.938 205.917C377.538 210.45 403.671 191.784 412.871 163.784ZM181.938 182.984C173.938 174.45 167.404 170.317 156.071 166.45C150.871 164.584 142.871 163.384 131.938 162.717L115.538 161.784V176.584C115.538 199.517 121.271 215.517 134.738 230.05C143.538 239.65 155.804 246.317 166.471 247.384C174.071 248.184 183.538 246.05 183.538 243.517C183.538 242.85 173.138 231.384 160.604 218.184C147.938 204.984 137.004 193.384 136.471 192.184C135.138 190.05 140.071 183.784 142.871 183.784C143.804 183.784 151.938 191.384 161.138 200.717C183.004 223.117 193.938 233.117 196.471 233.117C198.338 233.117 198.471 231.384 197.938 220.584C197.138 204.984 192.471 194.05 181.938 182.984ZM452.871 245.65C480.604 237.384 498.071 207.384 498.204 168.05V162.45L487.271 162.584C481.138 162.717 473.404 163.25 469.938 163.784C445.671 167.917 424.471 182.184 418.871 198.317C416.071 205.917 414.738 225.917 416.604 230.45C418.071 233.65 418.738 232.984 442.738 208.717C456.338 194.984 467.938 183.784 468.604 183.784C470.071 183.784 475.538 189.65 475.538 191.25C475.404 191.917 464.604 203.784 451.538 217.784C438.338 231.65 427.538 243.517 427.538 244.05C427.538 245.384 436.604 247.784 441.671 247.784C443.938 247.784 448.871 246.85 452.871 245.65ZM119.004 256.717C118.604 254.317 116.738 251.117 114.738 249.384C108.871 244.317 101.271 245.917 97.4043 253.25C94.8709 258.184 95.8043 261.384 101.004 265.784C106.471 270.184 110.871 270.05 115.804 265.117C119.138 261.65 119.671 260.317 119.004 256.717ZM496.071 264.717C506.604 273.784 520.738 259.65 510.871 249.784C506.471 245.25 499.804 245.25 495.538 249.784C491.138 254.45 491.404 260.584 496.071 264.717ZM224.471 295.384C225.538 293.517 208.204 277.65 201.404 274.317C196.738 272.05 192.204 271.117 185.538 270.85C174.604 270.45 167.004 272.45 155.538 278.584C147.004 283.117 126.071 301.517 126.338 304.317C126.604 307.25 149.671 327.25 156.871 330.717C174.738 339.117 194.338 340.45 210.871 334.45C217.138 332.05 220.871 329.384 228.604 321.784C233.804 316.317 238.204 311.517 238.204 310.85C238.204 310.317 220.471 310.05 198.871 310.317L159.538 310.717V304.717C159.538 301.384 159.938 298.317 160.604 298.05C161.138 297.65 175.538 297.117 192.604 296.85C209.804 296.717 224.071 296.05 224.471 295.384ZM455.538 277.917C451.671 275.784 445.538 273.25 441.671 272.317C422.871 267.25 405.404 272.984 392.338 288.317C389.004 292.184 386.204 295.784 386.204 296.317C386.204 296.717 400.871 297.117 418.604 297.117C448.471 297.117 451.271 297.384 453.271 299.517C454.604 300.85 455.538 302.984 455.538 304.184C455.538 308.984 450.604 309.65 412.604 310.184C381.138 310.717 375.538 310.984 375.538 312.717C375.538 316.05 390.604 329.784 398.338 333.517C422.604 344.984 448.738 339.117 474.604 316.45L486.338 306.317L483.538 302.45C479.004 296.05 462.871 281.917 455.538 277.917ZM278.604 386.85C279.138 384.184 279.271 381.784 279.138 381.517C278.871 381.384 245.004 380.85 203.671 380.317C131.271 379.65 128.604 379.65 129.271 382.05C129.671 383.384 130.471 386.45 130.871 388.984L131.804 393.517L151.938 392.717C162.871 392.184 195.804 391.784 224.871 391.784H277.804L278.604 386.85ZM482.071 390.184C482.738 388.45 483.538 385.517 483.804 383.65L484.204 380.45H409.804C368.871 380.45 335.004 380.717 334.738 380.984C334.471 381.25 334.204 383.917 334.204 386.717V391.784H356.604C368.871 391.784 401.804 392.184 429.804 392.717L480.738 393.517L482.071 390.184ZM450.871 423.517C452.604 420.317 453.004 418.184 452.204 417.384C451.404 416.717 424.738 415.784 392.604 415.384L334.204 414.584V421.25V427.784L383.538 428.05C410.738 428.184 436.338 428.317 440.471 428.45C448.071 428.45 448.204 428.317 450.871 423.517ZM164.204 417.517C165.271 418.05 166.471 417.784 166.871 417.117C167.404 416.317 165.538 415.784 162.604 415.784C159.804 415.784 158.204 416.317 159.004 416.85C159.804 417.384 161.804 420.45 163.671 423.65L166.871 429.517L183.538 428.584C192.738 428.184 217.804 427.784 239.271 427.784H278.204V421.784V415.784H236.204C209.404 415.784 194.204 416.317 194.204 417.117C194.204 417.917 190.071 418.317 184.071 418.184C178.204 418.184 174.738 417.65 175.804 416.984C177.004 416.184 176.604 415.784 174.338 415.784C172.604 415.784 171.538 416.184 171.938 416.717C173.138 417.917 166.071 421.384 163.938 420.584C163.004 420.184 162.204 419.25 162.204 418.317C162.204 417.517 163.138 417.117 164.204 417.517ZM278.204 463.784V456.717V449.784L242.071 449.25L205.938 448.85L206.871 451.917C207.404 453.65 208.871 456.584 210.071 458.45C212.338 461.65 213.271 461.784 229.671 462.584C239.138 463.117 253.938 463.517 262.604 463.65L278.204 463.784ZM402.338 461.65C403.404 461.117 408.871 450.717 408.871 449.517C408.871 449.25 392.071 449.117 371.538 449.117H334.204V456.717V464.184L367.671 463.25C386.071 462.85 401.671 462.05 402.338 461.65Z"
    fill="var(--logo-color, var(--color-primary))"
  />
</svg>
